<?xml version="1.0" encoding="UTF-8" standalone="no"?>
<!-- Generator: IcoMoon.io -->

<svg
   xmlns:dc="http://purl.org/dc/elements/1.1/"
   xmlns:cc="http://creativecommons.org/ns#"
   xmlns:rdf="http://www.w3.org/1999/02/22-rdf-syntax-ns#"
   xmlns:svg="http://www.w3.org/2000/svg"
   xmlns="http://www.w3.org/2000/svg"
   xmlns:sodipodi="http://sodipodi.sourceforge.net/DTD/sodipodi-0.dtd"
   xmlns:inkscape="http://www.inkscape.org/namespaces/inkscape"
   width="256"
   height="256"
   viewBox="0 0 512 512"><style type="text/css">path {fill: #000000;} path:hover {fill: #268ED4;}</style>
  <path
     d="M 192.00,96.00 C 315.712,96.00 416.00,196.289 416.00,320.00 L 368.00,320.00 C 368.00,272.988 349.693,228.791 316.451,195.549 C 283.209,162.307 239.011,144.00 192.00,144.00 L 192.00,96.00 ZM 192.00,0.00 C 368.73,0.00 512.00,143.27 512.00,320.00 L 464.00,320.00 C 464.00,283.26 456.815,247.643 442.645,214.141 C 428.947,181.757 409.328,152.663 384.333,127.667 C 359.337,102.671 330.243,83.052 297.859,69.355 C 264.357,55.185 228.741,48.00 192.00,48.00 L 192.00,0.00 ZM 287.195,224.804 C 309.074,246.682 319.993,275.357 319.98,304.029 C 288.00,352.027 288.00,416.00 288.00,416.00 C 160.00,416.00 64.00,512.00 64.00,512.00 L 57.00,505.00 L 45.435,493.435 L 187.226,351.644 C 188.784,351.877 190.377,352.00 192.00,352.00 C 209.673,352.00 224.00,337.673 224.00,320.00 C 224.00,302.327 209.673,288.00 192.00,288.00 C 174.327,288.00 160.00,302.327 160.00,320.00 C 160.00,321.623 160.123,323.217 160.356,324.774 L 18.565,466.565 L 0.00,448.00 C 0.00,448.00 96.00,352.00 96.00,224.00 C 96.00,224.00 159.999,224.00 207.999,192.00 C 236.663,192.00 265.326,202.935 287.195,224.804 Z"
     id="path3123" />
  <text
     xml:space="preserve"
     style="font-size:72.1296463px;font-style:normal;font-weight:normal;line-height:125%;letter-spacing:0px;word-spacing:0px;fill:#000000;fill-opacity:1;stroke:none;font-family:Sans"
     x="424.68048"
     y="419.45462"
     id="text3139"
     sodipodi:linespacing="125%"
     transform="scale(0.90622656,1.1034768)"><tspan
       sodipodi:role="line"
       x="424.68048"
       y="419.45462"
       id="tspan3141"><tspan
         x="424.68048"
         y="419.45462"
         id="tspan3143">EN</tspan></tspan></text>
</svg>
