<?xml version="1.0" encoding="UTF-8" standalone="no"?>
<!-- Created with Inkscape (http://www.inkscape.org/) -->

<svg
   xmlns:dc="http://purl.org/dc/elements/1.1/"
   xmlns:cc="http://creativecommons.org/ns#"
   xmlns:rdf="http://www.w3.org/1999/02/22-rdf-syntax-ns#"
   xmlns:svg="http://www.w3.org/2000/svg"
   xmlns="http://www.w3.org/2000/svg"
   xmlns:sodipodi="http://sodipodi.sourceforge.net/DTD/sodipodi-0.dtd"
   xmlns:inkscape="http://www.inkscape.org/namespaces/inkscape"
   id="svg3055"
   version="1.1"
   inkscape:version="0.48.4 r9939"
   width="1024"
   height="1024"
   viewBox="0 0 512 512">
  <style
     type="text/css"
     id="style3142">path {fill: #000000;} path:hover {fill: #268ED4;}</style>
  <g
     id="g3083"
     transform="matrix(4.3715413,0,0,4.463624,-16.575132,-35.495361)">
    <path
       d="m 89.675848,114.54845 c -5.552753,-1.98021 -13.47546,-7.5052 -19.317617,-13.47136 l -5.095743,-5.203906 -3.095826,5.485506 c -1.702704,3.01702 -4.666474,6.68349 -6.586156,8.1477 -7.05655,5.3823 -18.671526,7.02628 -25.370344,3.59093 -9.2295,-4.73317 -11.243098,-11.66563 -6.788069,-23.370149 C 24.839942,86.002115 26,82.559499 26,82.076912 26,81.594325 23.75831,80.661708 21.018466,80.00443 14.548469,78.452301 8.2428743,73.825528 6.3175215,69.21751 4.2369392,64.237976 4.9792426,56.242263 7.9033546,52.135726 11.766444,46.710517 21.953112,43 32.984121,43 c 8.735067,0 9.489072,-0.691946 10.693315,-9.813197 1.933963,-14.648348 7.747709,-21.944715 18.292919,-22.957976 6.288495,-0.6042451 9.121558,0.136188 12.996423,3.396672 4.338406,3.650528 6.995175,9.347462 9.016605,19.334386 L 85.711967,41.5 l 4.882126,0.701162 c 16.006047,2.298759 26.596447,9.111789 27.912357,17.956606 0.38114,2.561773 0.39149,6.030412 0.023,7.708088 -0.93278,4.246953 -6.42278,8.7746 -11.69858,9.647935 -6.11997,1.013072 -6.25035,1.244432 -2.87058,5.093772 10.38187,11.824298 9.891,27.433927 -0.99974,31.791537 -4.816145,1.92704 -8.193387,1.96501 -13.284712,0.14935 z M 48.05659,91.809193 c 2.256703,-2.854944 5.243467,-7.467444 6.637253,-10.25 5.819648,-11.61835 7.029505,-11.469022 20.457677,2.525012 10.775128,11.229191 12.868206,12.426024 15.214702,8.699847 C 91.275073,91.34082 89.809581,89.404341 81.145264,80.599613 73.137129,72.461701 70.916769,69.615613 71.171858,67.815561 71.491417,65.560566 71.840027,65.486922 84.5,65 91.65,64.725 98.0625,64.135942 98.75,63.690983 103.18376,60.82139 95.72784,58.072843 81.431438,57.306679 75.074812,56.966019 69.605134,56.206148 69.123257,55.596773 68.646242,54.993548 68.031192,49.515963 67.756479,43.424363 67.228799,31.723388 66.101666,28 63.087261,28 59.642286,28 58.681268,30.772816 58.036594,42.572644 57.194617,57.983813 57.4614,57.739874 40.5,58.607619 27.152179,59.290492 24,60.029544 24,62.476167 c 0,2.306708 1.787465,2.779574 11.370136,3.007919 10.19538,0.242945 13.178727,0.897887 14.014821,3.076711 0.595683,1.552325 -2.220937,8.185808 -7.357403,17.327578 C 40.362399,88.851981 39,92.564481 39,94.138375 39,96.516944 39.418087,97 41.476746,97 c 1.790599,0 3.613453,-1.438041 6.579844,-5.190807 z"
       id="path3099"
       inkscape:connector-curvature="0" />
  </g>
</svg>
